# xmcd CD database file
#
# Track frame offsets:
#	150
#	33065
#	60962
#	110991
#	137364
#	170640
#	199433
#	221004
#	245453
#	270064
#
# Disc length: 4036 seconds
#
# Revision: 0
# Processed by: cddbd v1.5.2PL0 Copyright (c) Steve Scherf et al.
# Submitted via: CDex 1.70beta2
#
DISCID=890fc20a
DTITLE=Jessica Williams - Solo Piano Compositions
DYEAR=2001
DGENRE=Jazz
TTITLE0=Innocence
TTITLE1=Blues for Bill   (for Bill Evans)
TTITLE2=Vision Quest
TTITLE3=What's Next
TTITLE4=Spoken Softly  (for Tony Williams)
TTITLE5=Waltz for Red  (Red Mitchell)
TTITLE6=Remembering  (for Thelonious Monk)
TTITLE7=Elbow Room
TTITLE8=Dark One
TTITLE9=Simple Things
EXTD=YEAR: 2001
EXTT0=
EXTT1=
EXTT2=
EXTT3=
EXTT4=
EXTT5=
EXTT6=
EXTT7=
EXTT8=
EXTT9=
PLAYORDER=
